<?xml version="1.0" encoding="UTF-8" standalone="no"?>
<!-- Created with Inkscape (http://www.inkscape.org/) -->

<svg
   width="125mm"
   height="300mm"
   viewBox="0 0 125 300"
   version="1.1"
   id="svg1"
   inkscape:version="1.3.2 (091e20e, 2023-11-25, custom)"
   sodipodi:docname="roboter8.svg"
   xmlns:inkscape="http://www.inkscape.org/namespaces/inkscape"
   xmlns:sodipodi="http://sodipodi.sourceforge.net/DTD/sodipodi-0.dtd"
   xmlns="http://www.w3.org/2000/svg"
   xmlns:svg="http://www.w3.org/2000/svg">
  <sodipodi:namedview
     id="namedview1"
     pagecolor="#ffffff"
     bordercolor="#000000"
     borderopacity="1"
     inkscape:showpageshadow="0"
     inkscape:pageopacity="0"
     inkscape:pagecheckerboard="0"
     inkscape:deskcolor="#505050"
     inkscape:document-units="mm"
     showgrid="true"
     inkscape:zoom="0.70710678"
     inkscape:cx="105.35891"
     inkscape:cy="515.48084"
     inkscape:window-width="2560"
     inkscape:window-height="1506"
     inkscape:window-x="-11"
     inkscape:window-y="-11"
     inkscape:window-maximized="1"
     inkscape:current-layer="layer1"
     showguides="true">
    <inkscape:grid
       id="grid1"
       units="mm"
       originx="0"
       originy="0"
       spacingx="0.99999998"
       spacingy="1"
       empcolor="#0099e5"
       empopacity="0.30196078"
       color="#0099e5"
       opacity="0.14901961"
       empspacing="5"
       dotted="false"
       gridanglex="30"
       gridanglez="30"
       visible="true" />
  </sodipodi:namedview>
  <defs
     id="defs1" />
  <g
     inkscape:label="Layer 1"
     inkscape:groupmode="layer"
     id="layer1">
    <path
       id="rect3-8-2"
       style="fill:none;stroke:#ff0000;stroke-width:0.199999;stroke-linecap:round;stroke-linejoin:round;stroke-dasharray:none;stroke-opacity:1"
       d="M 66.7,11.100139 60.49987,4.8999995 H 22.099629 l -6.19963,6.2001395 v 51.99992 h 3.99976 l 6.200141,-6.20014 v -41.80003 h 21.15013 v -3.59978 h 9.24956 v 3.59978 H 66.7 Z"
       sodipodi:nodetypes="cccccccccccccc" />
    <path
       id="rect3-8-0-3"
       style="fill:none;stroke:#ff0000;stroke-width:0.199999;stroke-linecap:round;stroke-linejoin:round;stroke-dasharray:none;stroke-opacity:1"
       d="m 69.3,11.10014 6.20014,-6.2001405 h 38.40023 L 120.1,11.10014 v 51.99992 h -3.99976 L 109.9001,56.89992 V 15.09989 H 88.74998 v -3.59978 h -9.24957 v 3.59978 H 69.3 Z"
       sodipodi:nodetypes="cccccccccccccc" />
    <path
       id="rect5-3-1"
       style="fill:none;fill-opacity:1;stroke:#ff0000;stroke-width:0.200001;stroke-linecap:round;stroke-linejoin:round;stroke-dasharray:none;stroke-opacity:1"
       d="m 90.100486,138.99998 a 5.0999999,5.0999999 0 0 0 -5.10047,-5.09995 H 40.24617 L 10.117261,120.48328 4.9000005,132.19936 v 13.60124 l 5.2172605,11.71608 30.128909,-13.41676 h 44.753846 a 5.0999999,5.0999999 0 0 0 5.10047,-5.09994 z m -63.842096,-6.95048 -1.26142,2.83187 -8.45013,-3.76256 1.26142,-2.83187 z m 0,13.90096 -8.45013,3.76256 -1.26091,-2.83187 8.44962,-3.76256 z m -9.1581,-6.95048 a 2.0999999,2.0999999 0 0 1 -2.09961,2.10013 2.0999999,2.0999999 0 0 1 -2.10013,-2.10013 2.0999999,2.0999999 0 0 1 2.10013,-2.10013 2.0999999,2.0999999 0 0 1 2.09961,2.10013 z" />
    <path
       id="rect3-8-2-0"
       style="fill:none;stroke:#ff0000;stroke-width:0.199999;stroke-linecap:round;stroke-linejoin:round;stroke-dasharray:none;stroke-opacity:1"
       d="m 69.3,116.89992 6.20013,6.20014 h 38.40024 L 120.1,116.89992 V 64.9 h -3.99976 l -6.20014,6.20014 v 41.80003 H 88.74997 v 3.59978 h -9.24956 v -3.59978 H 69.3 Z"
       sodipodi:nodetypes="cccccccccccccc" />
    <path
       id="rect3-8-0-3-3"
       style="fill:none;stroke:#ff0000;stroke-width:0.199999;stroke-linecap:round;stroke-linejoin:round;stroke-dasharray:none;stroke-opacity:1"
       d="m 66.699999,116.89992 -6.20014,6.20014 h -38.40023 l -6.19963,-6.20014 V 64.9 h 3.99976 l 6.20014,6.20014 v 41.80003 h 21.15012 v 3.59978 h 9.24957 v -3.59978 h 10.20041 z"
       sodipodi:nodetypes="cccccccccccccc" />
    <path
       id="rect5-3-1-4"
       style="fill:none;fill-opacity:1;stroke:#ff0000;stroke-width:0.200001;stroke-linecap:round;stroke-linejoin:round;stroke-dasharray:none;stroke-opacity:1"
       d="m 34.900001,151.99998 a 5.0999999,5.0999999 0 0 1 5.100471,-5.09995 h 44.753846 l 30.128912,-13.41675 5.21726,11.71608 v 13.60124 l -5.21726,11.71608 -30.128912,-13.41676 H 40.000472 a 5.0999999,5.0999999 0 0 1 -5.100471,-5.09994 z m 63.842099,-6.95048 1.26142,2.83187 8.45013,-3.76256 -1.26142,-2.83187 z m 0,13.90096 8.45013,3.76256 1.26091,-2.83187 -8.44962,-3.76256 z m 9.1581,-6.95048 a 2.0999999,2.0999999 0 0 0 2.09961,2.10013 2.0999999,2.0999999 0 0 0 2.10013,-2.10013 2.0999999,2.0999999 0 0 0 -2.10013,-2.10013 2.0999999,2.0999999 0 0 0 -2.09961,2.10013 z" />
    <path
       id="rect4-4-0"
       style="fill:none;fill-opacity:1;stroke:#ff0000;stroke-width:0.2;stroke-linecap:round;stroke-linejoin:round;stroke-opacity:1"
       d="m 15.09992,238.10018 9,9 h 57 l 9.00008,-9 v -18.8 h -7.0001 v -3.6 H 72.90001 v 3.6 h -7.20008 v 10.25 H 68.8 v 9.3 h -3.10007 v -1.95 H 39.49998 v 1.95 h -3.10007 v -9.3 h 3.10007 v -10.25 H 32.2999 v -3.6 H 22.10001 v 3.6 h -7.00009 z m 4.99969,-2.6 v -12.8 h 3.40031 v 12.8 z m 61.60038,0 v -12.8 h 3.39979 v 12.8 z"
       sodipodi:nodetypes="ccccccccccccccccccccccccccccccccccccc" />
    <path
       id="path26"
       style="font-weight:300;font-size:3.52778px;font-family:Calibri;-inkscape-font-specification:'Calibri Light';text-align:center;text-anchor:middle;fill:#1a1a1a;fill-opacity:0;stroke:#000000;stroke-width:0.2;stroke-linecap:round;stroke-linejoin:round;stroke-opacity:1"
       d="m 113.80927,206.87604 c -0.01,0.003 -0.0172,0.006 -0.0232,0.0105 -0.007,0.003 -0.0169,0.0112 -0.0296,0.0253 -0.0141,0.0126 -0.0318,0.04 -0.0529,0.0822 -0.0225,0.0407 -0.0423,0.0878 -0.0592,0.14122 -0.0183,0.052 -0.0334,0.10749 -0.0444,0.1665 -0.0109,0.059 -0.0169,0.11733 -0.0169,0.17495 0,0.11522 0.0154,0.2213 0.0465,0.31826 0.031,0.0955 0.076,0.17775 0.13534,0.2466 0.0578,0.0688 0.12899,0.12225 0.21359,0.16019 0.0832,0.0379 0.17767,0.0569 0.28338,0.0569 0.10853,0 0.20236,-0.0183 0.28126,-0.0548 0.0789,-0.0365 0.14795,-0.0843 0.20725,-0.14333 0.0579,-0.0604 0.10856,-0.12857 0.15226,-0.20444 0.0437,-0.0759 0.0344,-0.27833 0.0375,-0.36027 -2.4e-4,-0.0828 -0.003,-0.29527 0.0412,-0.37115 0.0423,-0.0773 0.093,-0.14613 0.15227,-0.20655 0.0578,-0.0604 0.12615,-0.1089 0.20513,-0.14543 0.0775,-0.0365 0.16985,-0.0548 0.27703,-0.0548 l -8.5e-4,-1e-5 c 0.1213,0 0.2298,0.0218 0.32567,0.0653 0.0959,0.0436 0.17765,0.10468 0.24532,0.18337 0.0663,0.0787 0.117,0.17213 0.15226,0.28032 0.0352,0.10819 0.0529,0.22623 0.0529,0.3541 0,0.0871 -0.009,0.16932 -0.0254,0.2466 -0.0155,0.0773 -0.0345,0.14614 -0.0571,0.20656 -0.0226,0.0604 -0.0452,0.11171 -0.0677,0.15386 -0.0239,0.0408 -0.0437,0.0688 -0.0592,0.0843 -0.0169,0.0155 -0.036,0.0267 -0.0571,0.0337 m 0.19029,-3.02244 c 0.01,0.01 0.0198,0.0253 0.0296,0.0464 0.009,0.0197 0.0155,0.0429 0.0211,0.0695 0.007,0.0267 0.0123,0.0548 0.0149,0.0843 0.004,0.0295 0.006,0.0583 0.006,0.0864 0,0.0941 -0.0127,0.17424 -0.0381,0.24028 -0.0254,0.066 -0.0635,0.12014 -0.11417,0.16229 -0.0522,0.0422 -0.11774,0.0731 -0.19668,0.0927 -0.0789,0.0183 -0.17204,0.0274 -0.27915,0.0274 h -1.1906 v 0.28454 c 0,0.0197 -0.004,0.0617 -0.004,0.0856 m -0.58189,-0.39169 c 0.004,-0.01 0.01,-0.0169 0.017,-0.0211 0.007,-0.004 0.0151,-0.006 0.0232,-0.006 h 0.46948 v -0.52693 c 0,-0.01 0.002,-0.0183 0.006,-0.0253 m 0.0685,-3.59309 v 0.46792 h 1.74467 c 0.009,0 0.0162,0.002 0.0233,0.006 0.007,0.004 0.013,0.0113 0.017,0.0211 m -1.8169,0.37964 c -0.004,-0.008 -0.006,-0.0176 -0.006,-0.0274 v -0.28665 h -0.21781 c -0.13393,0 -0.24813,-0.012 -0.34259,-0.0358 -0.0944,-0.0239 -0.1713,-0.0597 -0.23051,-0.10749 -0.0593,-0.0492 -0.10227,-0.11031 -0.12901,-0.18337 -0.0268,-0.0731 -0.0401,-0.15808 -0.0401,-0.25504 0,-0.0478 0.005,-0.0941 0.0148,-0.13911 0.009,-0.045 0.0183,-0.0787 0.0296,-0.10116 0.01,-0.0239 0.019,-0.0393 0.0275,-0.0464 0.007,-0.008 0.0166,-0.0148 0.0275,-0.019 m 2.55189,-1.04998 c 0.0398,0.0478 0.0583,0.0845 0.0951,0.15808 0.0507,0.10257 0.0761,0.20936 0.0761,0.32037 0,0.0998 -0.0126,0.18969 -0.0381,0.26979 -0.0268,0.0787 -0.0641,0.14543 -0.11209,0.20023 -0.0493,0.0548 -0.10852,0.097 -0.17763,0.12646 -0.0691,0.0295 -0.14662,0.0443 -0.23262,0.0443 -0.10571,0 -0.19738,-0.0218 -0.27492,-0.0653 -0.0789,-0.0436 -0.14454,-0.10539 -0.19668,-0.18548 -0.0522,-0.0801 -0.0908,-0.17634 -0.11626,-0.28875 -0.0268,-0.11241 -0.0376,-0.36141 -0.0376,-0.49911 m -0.63229,0.94585 c -0.0183,-0.004 -0.036,-0.0148 -0.0529,-0.0316 -0.0183,-0.0183 -0.0395,-0.0499 -0.0635,-0.0949 -0.0239,-0.045 -0.0458,-0.0962 -0.0656,-0.15386 -0.0211,-0.059 -0.0381,-0.12225 -0.0507,-0.18969 -0.0126,-0.0674 -0.019,-0.1349 -0.019,-0.20234 0,-0.13068 0.0162,-0.24099 0.0486,-0.33091 0.0311,-0.0899 0.0761,-0.1623 0.13534,-0.2171 0.0593,-0.0562 0.13257,-0.0962 0.21994,-0.12014 0.0859,-0.0239 0.18398,-0.0358 0.29395,-0.0358 l 1.29375,1.1e-4 c 0.0141,0 0.0254,0.005 0.0339,0.0148 m -2.69841,-3.62948 c -0.01,-0.006 -0.0169,-0.012 -0.0211,-0.019 -0.006,-0.008 -0.009,-0.0183 -0.009,-0.0295 v -1.88429 c 0,-0.01 0.002,-0.019 0.009,-0.0274 0.004,-0.008 0.011,-0.0155 0.0211,-0.0211 m 0.41234,0.94389 h 2.25196 c 0.009,0 0.0162,0.002 0.0233,0.006 0.007,0.004 0.013,0.0113 0.0169,0.0211 m -5.8e-4,-8.86257 c -0.004,0.01 -0.01,0.0169 -0.017,0.0211 -0.007,0.003 -0.0151,0.004 -0.0233,0.004 h -1.91386 c -0.009,0 -0.0162,-0.001 -0.0232,-0.004 m 0.13105,-0.38573 c -0.0493,-0.0464 -0.0874,-0.0906 -0.11417,-0.13279 -0.0281,-0.0422 -0.0471,-0.0829 -0.0571,-0.12225 -0.01,-0.0408 -0.0149,-0.0822 -0.0149,-0.12436 0,-0.0183 0.001,-0.0393 0.004,-0.0632 10e-4,-0.0239 0.005,-0.0492 0.011,-0.0759 0.006,-0.0281 0.0128,-0.0527 0.0211,-0.0738 0.007,-0.0225 0.0144,-0.0379 0.0211,-0.0464 0.006,-0.008 0.011,-0.014 0.0169,-0.0169 0.004,-0.003 0.01,-0.005 0.019,-0.006 0.007,-0.003 0.0179,-0.004 0.0317,-0.004 m -4.91172,17.33908 c 0.2298,0 0.43281,0.0288 0.60905,0.0864 0.17482,0.0576 0.32144,0.14262 0.43987,0.25503 0.11847,0.11241 0.20796,0.25152 0.26858,0.41733 0.0606,0.1644 0.091,0.36112 0.091,0.59016 V 204.9 c 0,0.0253 -0.009,0.0513 -0.0275,0.078 -0.0198,0.0267 -0.055,0.0401 -0.1057,0.0401 h -2.47004 c -0.0507,0 -0.0853,-0.0134 -0.10362,-0.0401 -0.0198,-0.0267 -0.0296,-0.0527 -0.0296,-0.078 v -0.57329 c 0,-0.23185 0.0317,-0.42717 0.0951,-0.58595 0.0635,-0.16018 0.15366,-0.29367 0.2707,-0.40046 0.11564,-0.10819 0.25517,-0.1897 0.41871,-0.2445 0.16214,-0.0548 0.3433,-0.0822 0.5435,-0.0822 z m 6.6994,-15.59702 c 0.007,0.007 0.02,0.0288 0.0381,0.0653 0.0169,0.0365 0.0346,0.0843 0.0529,0.14333 0.0169,0.059 0.0324,0.12787 0.0465,0.20655 0.0141,0.0773 0.0211,0.16089 0.0211,0.25082 0,0.14754 -0.0219,0.27822 -0.0656,0.39203 -0.0451,0.11382 -0.11062,0.20937 -0.19668,0.28665 -0.0874,0.0773 -0.19525,0.1363 -0.32356,0.17705 -0.12829,0.0393 -0.27703,0.059 -0.4462,0.059 -0.16214,0 -0.30735,-0.0204 -0.43565,-0.0611 -0.12829,-0.0422 -0.23684,-0.10187 -0.32567,-0.17915 -0.0902,-0.0773 -0.1586,-0.17003 -0.20513,-0.27822 -0.048,-0.1096 -0.0719,-0.23115 -0.0719,-0.36464 0,-0.14332 0.0239,-0.26557 0.0719,-0.36674 0.048,-0.10116 0.11282,-0.18407 0.19456,-0.24871 0.0804,-0.066 0.17413,-0.11382 0.28126,-0.14332 0.10717,-0.0309 0.21994,-0.0464 0.33836,-0.0464 l 0.051,-6e-5 c 0.0507,0 0.0859,0.0134 0.1057,0.0401 0.0183,0.0267 0.0275,0.0527 0.0275,0.078 l -0.001,1.18778 m 0.84242,3.17605 c 0.007,0.007 0.02,0.0288 0.0381,0.0653 0.0169,0.0365 0.0346,0.0843 0.0529,0.14332 0.0169,0.059 0.0324,0.12787 0.0465,0.20656 0.0141,0.0773 0.0211,0.16089 0.0211,0.25082 0,0.14754 -0.0219,0.27821 -0.0656,0.39203 -0.0451,0.11382 -0.11062,0.20937 -0.19668,0.28665 -0.0874,0.0773 -0.19525,0.1363 -0.32355,0.17705 -0.1283,0.0393 -0.27703,0.059 -0.44621,0.059 -0.16214,0 -0.30735,-0.0204 -0.43564,-0.0611 -0.1283,-0.0421 -0.23685,-0.10188 -0.32567,-0.17916 -0.0902,-0.0773 -0.15861,-0.17002 -0.20514,-0.27821 -0.048,-0.1096 -0.0719,-0.23115 -0.0719,-0.36464 0,-0.14332 0.0239,-0.26557 0.0719,-0.36674 0.048,-0.10117 0.11283,-0.18407 0.19457,-0.24871 0.0804,-0.066 0.17412,-0.11382 0.28125,-0.14333 0.10718,-0.0309 0.21994,-0.0464 0.33836,-0.0464 l 0.051,-6e-5 c 0.0507,0 0.0859,0.0134 0.10571,0.0401 0.0183,0.0267 0.0275,0.0527 0.0275,0.078 l -0.001,1.18779 m 0.84303,10.3769 c 0.007,0.007 0.02,0.0288 0.0381,0.0653 0.0169,0.0365 0.0346,0.0843 0.0529,0.14332 0.0169,0.059 0.0324,0.12787 0.0465,0.20656 0.0141,0.0773 0.0211,0.16089 0.0211,0.25082 0,0.14753 -0.0219,0.27821 -0.0656,0.39203 -0.0451,0.11382 -0.11062,0.20936 -0.19668,0.28665 -0.0874,0.0773 -0.19525,0.1363 -0.32356,0.17705 -0.12829,0.0393 -0.27703,0.059 -0.4462,0.059 -0.16214,0 -0.30735,-0.0204 -0.43565,-0.0611 -0.12829,-0.0421 -0.23684,-0.10188 -0.32567,-0.17916 -0.0902,-0.0773 -0.1586,-0.17002 -0.20513,-0.27822 -0.048,-0.10959 -0.0719,-0.23114 -0.0719,-0.36463 0,-0.14332 0.0239,-0.26557 0.0719,-0.36674 0.048,-0.10117 0.11282,-0.18408 0.19456,-0.24871 0.0804,-0.066 0.17413,-0.11382 0.28126,-0.14333 0.10717,-0.0309 0.21994,-0.0464 0.33836,-0.0464 l 0.051,-6e-5 c 0.0507,0 0.0859,0.0134 0.1057,0.0401 0.0183,0.0267 0.0275,0.0527 0.0275,0.078 l -0.001,1.18779 m -4.57113,-3.56773 c 0.007,0.007 0.02,0.0288 0.0381,0.0653 0.0169,0.0365 0.0346,0.0843 0.0529,0.14332 0.0169,0.059 0.0324,0.12787 0.0465,0.20656 0.0141,0.0773 0.0211,0.16089 0.0211,0.25082 0,0.14754 -0.0219,0.27821 -0.0656,0.39203 -0.0451,0.11382 -0.11061,0.20937 -0.19667,0.28665 -0.0874,0.0773 -0.19526,0.1363 -0.32356,0.17705 -0.1283,0.0393 -0.27703,0.059 -0.44621,0.059 -0.16214,0 -0.30735,-0.0204 -0.43564,-0.0611 -0.1283,-0.0421 -0.23685,-0.10188 -0.32567,-0.17916 -0.0902,-0.0773 -0.15861,-0.17002 -0.20514,-0.27821 -0.048,-0.1096 -0.0719,-0.23115 -0.0719,-0.36464 0,-0.14332 0.0239,-0.26557 0.0719,-0.36674 0.048,-0.10117 0.11283,-0.18407 0.19457,-0.24871 0.0804,-0.066 0.17412,-0.11382 0.28125,-0.14333 0.10718,-0.0309 0.21994,-0.0464 0.33836,-0.0464 l 0.051,-5e-5 c 0.0507,0 0.0859,0.0134 0.10571,0.0401 0.0183,0.0267 0.0275,0.0527 0.0275,0.078 l -0.001,1.18778 m -0.91628,-2.89077 c -0.008,0.004 -0.0186,0.0141 -0.0296,0.0295 -0.0113,0.0141 -0.024,0.0351 -0.0381,0.0632 -0.0155,0.0281 -0.0297,0.0618 -0.0423,0.10117 -0.0124,0.0379 -0.0226,0.0808 -0.0296,0.12857 -0.009,0.0464 -0.0127,0.0934 -0.0127,0.14121 0,0.11242 0.0154,0.21008 0.0465,0.29298 0.031,0.0815 0.072,0.14894 0.12265,0.20234 0.0508,0.052 0.10861,0.0906 0.17341,0.11592 0.0634,0.0253 0.12825,0.0379 0.19455,0.0379 0.0831,0 0.1543,-0.014 0.2136,-0.0421 0.0592,-0.0281 0.10995,-0.0646 0.15225,-0.1096 0.0423,-0.0464 0.0783,-0.0984 0.10792,-0.15597 0.0296,-0.059 0.01,-0.24435 0.003,-0.31125 -0.006,-0.0712 -0.0181,-0.2368 0.0115,-0.29582 0.0281,-0.059 0.0627,-0.11171 0.10362,-0.15807 0.0409,-0.0464 0.0902,-0.0836 0.14802,-0.11172 0.0563,-0.0281 0.12477,-0.0422 0.20513,-0.0422 l 2.9e-4,-1e-5 c 0.0917,0 0.17412,0.0169 0.24742,0.0506 0.072,0.0337 0.13327,0.0822 0.18399,0.14544 0.0507,0.0618 0.0895,0.13629 0.11626,0.22341 0.0268,0.0871 0.0401,0.18338 0.0401,0.28876 0,0.066 -0.006,0.12857 -0.0169,0.18759 -0.01,0.059 -0.0226,0.11241 -0.0381,0.16018 -0.0169,0.0478 -0.0346,0.0885 -0.0529,0.12225 -0.0183,0.0323 -0.0345,0.0562 -0.0486,0.0717 -0.0141,0.0154 -0.0317,0.0267 -0.0529,0.0337 m 3.57945,-6.4665 c 0.001,-0.0169 0.005,-0.0295 0.011,-0.0379 0.004,-0.01 0.01,-0.0169 0.0169,-0.0211 0.007,-0.004 0.0151,-0.006 0.0232,-0.006 h 1.91386 c 0.009,0 0.0162,0.002 0.0232,0.006 0.007,0.004 0.013,0.0113 0.0169,0.0211 0.004,0.008 0.007,0.0211 0.0111,0.0379 m -2.74542,-0.0675 c 0.0226,-0.0239 0.0676,-0.0358 0.13534,-0.0358 l 2e-5,-1e-5 c 0.0677,0 0.11356,0.012 0.13747,0.0358 m -4.95687,4.51697 c 10e-4,-0.0169 0.005,-0.0295 0.011,-0.0379 0.004,-0.01 0.01,-0.0169 0.017,-0.0211 0.007,-0.004 0.0151,-0.006 0.0232,-0.006 h 1.91386 c 0.009,0 0.0162,0.002 0.0232,0.006 0.007,0.004 0.013,0.0113 0.0169,0.0211 0.004,0.008 0.007,0.0211 0.011,0.0379 m -2.74542,-0.0675 c 0.0226,-0.0239 0.0677,-0.0358 0.13534,-0.0358 h 3e-5 c 0.0676,0 0.11356,0.012 0.13746,0.0358 m 1.34689,-0.63233 c -0.0635,0.0225 -0.13957,0.0337 -0.22839,0.0337 -0.10718,0 -0.20302,-0.0176 -0.28761,-0.0527 -0.0859,-0.0351 -0.15861,-0.0836 -0.21782,-0.14543 -0.0593,-0.0632 -0.10435,-0.1384 -0.13535,-0.22552 -0.0324,-0.0871 -0.0486,-0.18267 -0.0486,-0.28665 0,-0.0548 0.004,-0.10609 0.011,-0.15386 0.006,-0.0492 0.0135,-0.0941 0.0232,-0.1349 v -0.56276 c 0,-0.0239 0.009,-0.0408 0.0275,-0.0506 m 0.38462,0.22975 c 0.0705,-0.0239 0.14519,-0.0358 0.22416,-0.0358 0.10853,0 0.20514,0.0176 0.28973,0.0527 0.0846,0.0337 0.15649,0.0822 0.2157,0.14543 0.0578,0.0632 0.10214,0.1384 0.13323,0.22553 0.0311,0.0871 0.0465,0.18337 0.0465,0.28875 0,0.0857 -0.0123,0.16721 -0.036,0.2445 -0.0239,0.0773 -0.0537,0.1377 -0.0889,0.18126 0.0281,0.0281 0.0605,0.0513 0.0972,0.0695 0.0367,0.0183 0.0789,0.0274 0.12688,0.0274 0.0537,0 0.0987,-0.0253 0.13534,-0.0759 0.0367,-0.052 0.0563,-0.11873 0.0592,-0.20023 l 0.0211,-0.51639 c 0.002,-0.0871 0.0145,-0.16862 0.036,-0.2445 0.0211,-0.0773 0.0528,-0.14473 0.0952,-0.20234 0.0409,-0.0576 0.0917,-0.10328 0.15225,-0.137 0.0607,-0.0337 0.13185,-0.0506 0.2136,-0.0506 0.0846,0 0.16565,0.0176 0.24319,0.0527 0.0775,0.0337 0.14519,0.0871 0.20302,0.16019 0.0592,0.0717 0.10571,0.1637 0.13957,0.27611 0.0352,0.11241 0.0529,0.2466 0.0529,0.40257 0,0.14895 -0.0134,0.27611 -0.0401,0.3815 -0.0254,0.10398 -0.0614,0.18969 -0.10792,0.25714 -0.0451,0.066 -0.0987,0.11451 -0.16073,0.14543 -0.062,0.0295 -0.129,0.0443 -0.2009,0.0443 -0.0494,0 -0.0959,-0.006 -0.13957,-0.0169 -0.0437,-0.0113 -0.0853,-0.0281 -0.12477,-0.0506 -0.0394,-0.0239 -0.0775,-0.0527 -0.11418,-0.0864 m 5.52889,1.72428 c -0.004,0.01 -0.01,0.0169 -0.0169,0.0211 -0.007,0.003 -0.0151,0.004 -0.0232,0.004 h -1.91386 c -0.009,0 -0.0162,-0.001 -0.0232,-0.004 m 0.19746,-0.33135 c -0.0732,-0.0691 -0.11504,-0.11972 -0.17004,-0.2251 -0.055,-0.10539 -0.0825,-0.21007 -0.0825,-0.31405 0,-0.12506 0.0211,-0.23044 0.0635,-0.31616 0.0424,-0.0857 0.0994,-0.15456 0.1713,-0.20655 0.0719,-0.0534 0.15583,-0.0913 0.25165,-0.11382 0.0959,-0.0239 0.21147,-0.0358 0.34683,-0.0358 l 1.15891,-1.1e-4 c 0.009,0 0.0162,0.002 0.0232,0.006 0.007,0.004 0.013,0.0113 0.017,0.0211 m -5.4145,-2.33528 c -0.004,0.01 -0.01,0.0169 -0.0169,0.0211 -0.007,0.003 -0.0151,0.004 -0.0232,0.004 h -1.91386 c -0.009,0 -0.0162,-0.001 -0.0232,-0.004 m 0.19746,-0.33135 c -0.0732,-0.0691 -0.11504,-0.11972 -0.17004,-0.22511 -0.055,-0.10538 -0.0825,-0.21006 -0.0825,-0.31404 0,-0.12506 0.0211,-0.23045 0.0635,-0.31616 0.0424,-0.0857 0.0995,-0.15457 0.1713,-0.20655 0.072,-0.0534 0.15583,-0.0914 0.25165,-0.11383 0.0959,-0.0239 0.21147,-0.0358 0.34683,-0.0358 l 1.15891,-1.1e-4 c 0.009,0 0.0162,0.002 0.0232,0.006 0.007,0.004 0.013,0.0113 0.0169,0.0211 m 3.55691,-3.46365 c -0.0437,-0.0548 -0.0782,-0.1082 -0.10362,-0.16018 -0.0268,-0.052 -0.0458,-0.10327 -0.0571,-0.15387 -0.0111,-0.052 -0.017,-0.10537 -0.017,-0.16018 0,-0.1377 0.0268,-0.25504 0.0804,-0.35199 0.0537,-0.0984 0.12622,-0.17775 0.21781,-0.23817 0.0917,-0.0618 0.19879,-0.10678 0.32145,-0.13489 0.12265,-0.0281 0.25306,-0.0421 0.39123,-0.0421 l -5e-5,-1e-5 c 0.16354,0 0.31087,0.0176 0.44199,0.0527 0.12971,0.0351 0.24037,0.0878 0.33202,0.15808 0.0916,0.0688 0.16213,0.15457 0.21147,0.25714 0.0494,0.10117 0.074,0.2178 0.074,0.34988 0,0.059 -0.006,0.11382 -0.019,0.1644 -0.011,0.0492 -0.0303,0.0976 -0.0571,0.14544 -0.0268,0.0478 -0.0607,0.097 -0.10153,0.14753 m 0.14175,0.36678 c -0.004,0.008 -0.01,0.0148 -0.0169,0.019 -0.007,0.003 -0.0158,0.004 -0.0254,0.004 h -2.85069 c -0.009,0 -0.0162,-0.001 -0.0233,-0.004 -0.007,-0.004 -0.013,-0.0113 -0.0169,-0.0211 m -4.33502,0.94276 c -0.0437,-0.0548 -0.0782,-0.10821 -0.10362,-0.16019 -0.0268,-0.052 -0.0458,-0.10327 -0.0571,-0.15386 -0.0111,-0.052 -0.0169,-0.10538 -0.0169,-0.16019 0,-0.1377 0.0268,-0.25503 0.0804,-0.35199 0.0537,-0.0984 0.12622,-0.17775 0.21782,-0.23817 0.0917,-0.0618 0.19879,-0.10678 0.32145,-0.13489 0.12264,-0.0281 0.25306,-0.0421 0.39123,-0.0421 l -5e-5,-1e-5 c 0.16354,0 0.31087,0.0176 0.44199,0.0527 0.1297,0.0351 0.24037,0.0878 0.33202,0.15808 0.0916,0.0688 0.16212,0.15457 0.21147,0.25714 0.0493,0.10117 0.074,0.2178 0.074,0.34988 0,0.059 -0.006,0.11382 -0.019,0.16441 -0.011,0.0492 -0.0303,0.0976 -0.0571,0.14543 -0.0268,0.0478 -0.0606,0.097 -0.10153,0.14754 m 0.14175,0.36678 c -0.004,0.008 -0.01,0.0147 -0.0169,0.019 -0.007,0.003 -0.0158,0.004 -0.0254,0.004 h -2.85069 c -0.009,0 -0.0162,-10e-4 -0.0233,-0.004 -0.007,-0.004 -0.013,-0.0112 -0.0169,-0.0211 m 0.94202,-3.64852 c 0.007,-0.008 0.0172,-0.0126 0.0296,-0.0126 0.011,0 0.0262,0.004 0.0444,0.0105 l 1.91717,0.71245 0.7169,0.26557 c 0.0156,0.007 0.0282,0.0218 0.038,0.0443 m -0.80515,-0.006 -1.86734,0.69344 c -0.0198,0.007 -0.0352,0.0105 -0.0465,0.0105 -0.0127,0 -0.0226,-0.004 -0.0296,-0.0105" />
    <path
       id="rect2-6"
       style="fill:none;fill-opacity:1;stroke:#ff0000;stroke-width:0.200001;stroke-linecap:round;stroke-linejoin:round;stroke-opacity:1"
       d="m 6.9000005,209.10007 c 0,2.216 1.7837598,4.00027 3.9997495,4.00027 h 24.20008 c 2.21599,0 4.00027,-1.78427 4.00027,-4.00027 v -1.99988 h 3.79977 v 23.40012 c 0,2.216 1.78427,3.99976 4.00027,3.99976 h 12.19977 c 2.216,0 3.99976,-1.78376 3.99976,-3.99976 v -16.8 h 8.80025 v -3.6003 h 9.4 v 3.6003 h 13.79986 v -3.6003 h 9.39994 v 3.6003 h 15.4001 v -33.40003 h -15.4001 v 3.59978 h -9.39994 v -3.59978 H 81.29992 v 3.59978 h -9.4 v -3.59978 h -8.80025 v -16.80001 c 0,-2.216 -1.78376,-4.00027 -3.99976,-4.00027 H 46.90014 c -2.216,0 -4.00027,1.78427 -4.00027,4.00027 v 23.40012 H 39.1001 V 184.9 c 0,-2.216 -1.78428,-3.99976 -4.00027,-3.99976 H 10.89975 c -2.2159897,0 -3.9997495,1.78376 -3.9997495,3.99976 z M 49.89996,202.89993 v -11.79979 c 0,-1.108 0.89188,-1.99988 1.99987,-1.99988 h 7.80004 c 1.108,0 1.99988,0.89188 1.99988,1.99988 v 11.79979 c 0,1.108 -0.89188,2.0004 -1.99988,2.0004 h -7.80004 c -1.10799,0 -1.99987,-0.8924 -1.99987,-2.0004 z m 0.19998,24.20008 v -9.39995 h 3.19981 v 9.39995 z m 0,-50.8 v -9.39995 h 3.19981 v 9.39995 z"
       sodipodi:nodetypes="ssssccssssccccccccccccccccccccssssccsssssssssssssscccccccccc" />
    <path
       id="rect6-1-0-0"
       style="fill:none;fill-opacity:1;stroke:#ff0000;stroke-width:0.199999;stroke-linecap:round;stroke-linejoin:round;stroke-opacity:1"
       d="m 98.10004,178.1001 v -8.20002 h -3.6003 V 162.9 H 68.5003 v 7.00008 H 64.9 v 8.20002 z M 81.50002,174.40007 A 3.9000001,3.9000001 0 0 1 77.6,170.50005 a 3.9000001,3.9000001 0 0 1 3.90002,-3.90002 3.9000001,3.9000001 0 0 1 3.90002,3.90002 3.9000001,3.9000001 0 0 1 -3.90002,3.90002 z" />
    <path
       id="path11-2"
       style="fill:none;fill-opacity:1;stroke:#ff0000;stroke-width:0.2;stroke-linecap:round;stroke-linejoin:round;stroke-opacity:1"
       d="m 92.9,229.00004 a 12.1,12.099999 0 0 0 12.10004,12.10004 12.1,12.099999 0 0 0 12.09952,-12.10004 A 12.1,12.099999 0 0 0 105.00004,216.9 12.1,12.099999 0 0 0 92.9,229.00004 Z m 9.85004,0 a 2.25,2.25 0 0 1 2.25,-2.24999 2.25,2.25 0 0 1 2.24999,2.24999 2.25,2.25 0 0 1 -2.24999,2.24999 2.25,2.25 0 0 1 -2.25,-2.24999 z m 0.14987,8.00003 a 2.0999999,2.0999999 0 0 1 2.10013,-2.10013 2.0999999,2.0999999 0 0 1 2.09961,2.10013 2.0999999,2.0999999 0 0 1 -2.09961,2.09961 2.0999999,2.0999999 0 0 1 -2.10013,-2.09961 z m 0,-16.00006 a 2.0999999,2.0999999 0 0 1 2.10013,-2.10013 2.0999999,2.0999999 0 0 1 2.09961,2.10013 2.0999999,2.0999999 0 0 1 -2.09961,2.09962 2.0999999,2.0999999 0 0 1 -2.10013,-2.09962 z" />
    <path
       id="path11-4-8"
       style="fill:none;fill-opacity:1;stroke:#ff0000;stroke-width:0.2;stroke-linecap:round;stroke-linejoin:round;stroke-opacity:1"
       d="M 14.4,166.50004 A 12.1,12.099999 0 0 0 26.50004,178.60008 12.1,12.099999 0 0 0 38.59956,166.50004 12.1,12.099999 0 0 0 26.50004,154.4 12.1,12.099999 0 0 0 14.4,166.50004 Z m 9.85004,0 a 2.25,2.25 0 0 1 2.25,-2.24999 2.25,2.25 0 0 1 2.24999,2.24999 2.25,2.25 0 0 1 -2.24999,2.24999 2.25,2.25 0 0 1 -2.25,-2.24999 z m 0.14987,8.00003 a 2.0999999,2.0999999 0 0 1 2.10013,-2.10013 2.0999999,2.0999999 0 0 1 2.09961,2.10013 2.0999999,2.0999999 0 0 1 -2.09961,2.09961 2.0999999,2.0999999 0 0 1 -2.10013,-2.09961 z m 0,-16.00006 a 2.0999999,2.0999999 0 0 1 2.10013,-2.10013 2.0999999,2.0999999 0 0 1 2.09961,2.10013 2.0999999,2.0999999 0 0 1 -2.09961,2.09961 2.0999999,2.0999999 0 0 1 -2.10013,-2.09961 z" />
    <path
       id="rect1-7-3"
       style="fill:none;fill-opacity:1;stroke:#ff0000;stroke-width:0.2;stroke-linecap:round;stroke-linejoin:round;stroke-opacity:1"
       d="m 65.9,109.1 h 40.20026 V 69.300003 h -4.20025 v 7.999996 h -3.100001 v -7.999996 h -7.7 V 65.7 h -10.20001 v 3.600003 h -13 V 65.7 H 57.7 v 3.600003 H 39.5 v 9.799996 h -3.6 v 10.2 h 3.6 v 7.8 H 53.9 Z M 91.750239,96.999449 c 0,-1.24263 1.00736,-2.24999 2.24999,-2.24999 1.24263,0 2.24999,1.00736 2.24999,2.24999 0,1.24263 -1.00736,2.24999 -2.24999,2.24999 -1.24263,0 -2.24999,-1.00736 -2.24999,-2.24999 z m 0.14986,8.000031 c 2.1e-4,-1.1597 0.94043,-2.09969 2.10013,-2.09961 1.1597,-8e-5 2.09992,0.93991 2.10013,2.09961 7e-5,1.1599 -0.94023,2.1002 -2.10013,2.10013 -1.1599,7e-5 -2.1002,-0.94023 -2.10013,-2.10013 z m 0,-16.000061 c 2.1e-4,-1.15969 0.94043,-2.09968 2.10013,-2.09961 1.1597,-7e-5 2.09992,0.93992 2.10013,2.09961 7e-5,1.1599 -0.94023,2.1002 -2.10013,2.10013 -1.1599,7e-5 -2.1002,-0.94023 -2.10013,-2.10013 z"
       sodipodi:nodetypes="cccccccccccccccccccccccssssscccccccccc" />
    <path
       id="rect1-7-1-0"
       style="fill:none;fill-opacity:1;stroke:#ff0000;stroke-width:0.2;stroke-linecap:round;stroke-linejoin:round;stroke-opacity:1"
       d="m 65.9,18.9 h 40.20026 v 39.8 h -4.20025 v -8 h -3.100001 v 8 h -7.70001 v 3.6 h -10.2 v -3.6 h -13 v 3.6 H 57.7 V 58.7 H 39.5 V 48.9 H 35.9 V 38.7 h 3.6 v -7.8 h 14.4 z m 25.850239,12.10056 c 0,1.24263 1.00736,2.24998 2.24999,2.24999 1.24263,-10e-6 2.24999,-1.00736 2.24999,-2.24999 0,-1.24264 -1.00736,-2.24999 -2.24999,-2.24999 -1.24263,0 -2.24999,1.00735 -2.24999,2.24999 z m 0.14986,-8.00003 c 2.1e-4,1.1597 0.94043,2.09968 2.10013,2.09961 1.1597,7e-5 2.09992,-0.93991 2.10013,-2.09961 7e-5,-1.1599 -0.94023,-2.1002 -2.10013,-2.10013 -1.1599,-7e-5 -2.1002,0.94023 -2.10013,2.10013 z m 0,16.00006 c 2.1e-4,1.15969 0.94043,2.09968 2.10013,2.09961 1.1597,7e-5 2.09992,-0.93992 2.10013,-2.09961 7e-5,-1.1599 -0.94023,-2.10021 -2.10013,-2.10013 -1.1599,-8e-5 -2.1002,0.94023 -2.10013,2.10013 z"
       sodipodi:nodetypes="cccccccccccccccccccccccssssscccccccccc" />
  </g>
</svg>
